PathFileType	4	(X/Y/Z)	./resultDataOpenSim/trcMotMarkerGrf/sub10/qtm-01-07.trc
DataRate	CameraRate	NumFrames	NumMarkers	Units	OrigDataRate	OrigDataStartFrame	OrigNumFrames
250.000000	250.000000	7	24	m	250.000000	291	464
Frame#	Time	L.Toe.Tip			R.Toe.Tip			L.Ankle.Lat			R.Ankle.Lat			L.Ankle.Med			R.Ankle.Med			L.Heel			R.Heel			L.Knee.Lat			R.Knee.Lat			L.Knee.Med			R.Knee.Med			L.Thigh.Upper			R.Thigh.Upper			L.ASIS			R.ASIS			V.Sacral			L.Acromium			R.Acromium			C7			L.Elbow			R.Elbow			L.Wrist.Lat			R.Wrist.Lat
		X1	Y1	Z1	X2	Y2	Z2	X3	Y3	Z3	X4	Y4	Z4	X5	Y5	Z5	X6	Y6	Z6	X7	Y7	Z7	X8	Y8	Z8	X9	Y9	Z9	X10	Y10	Z10	X11	Y11	Z11	X12	Y12	Z12	X13	Y13	Z13	X14	Y14	Z14	X15	Y15	Z15	X16	Y16	Z16	X17	Y17	Z17	X18	Y18	Z18	X19	Y19	Z19	X20	Y20	Z20	X21	Y21	Z21	X22	Y22	Z22	X23	Y23	Z23	X24	Y24	Z24

291	1.16	0.065870903	0.042739323	-0.054172673	0.82868043	0.083682068	0.1040545	-0.045732382	0.11728995	-0.069060474	0.69072058	0.054111587	0.13604615	-0.019525647	0.13278912	0.013101563	0.70381901	0.087648361	0.053888339	-0.11300132	0.11771135	-0.021769092	0.65407404	0.016163574	0.088049777	0.1737459	0.43506647	-0.11429929	0.56532186	0.45208544	0.16970818	0.19199757	0.40331658	0.0071679026	0.59180145	0.44842533	0.030926046	0.30274369	0.80585155	-0.17043556	0.43195589	0.82348215	0.19790139	0.39453549	0.90167593	-0.13618074	0.4765941	0.91478902	0.10436461	0.23161446	0.91873725	0.064039612	0.3590114	1.3660362	-0.1509035	0.33799819	1.3668458	0.17933367	0.26082141	1.3978789	0.0026416691	0.34046028	1.0244909	-0.19537826	0.17333273	1.0666913	0.1966636	0.59737886	0.9179788	-0.21898886	0.1927024	0.83616169	0.27224127
292	1.164	0.066476942	0.042872928	-0.054106687	0.83246663	0.078677721	0.10404105	-0.043318879	0.12001748	-0.069293985	0.69318609	0.054182719	0.13550025	-0.01673589	0.13510879	0.012724548	0.7074778	0.086982944	0.053253723	-0.11044459	0.12167907	-0.022028823	0.65524926	0.017456425	0.087547206	0.17999255	0.43523327	-0.1141501	0.57073706	0.45203654	0.17039876	0.19813045	0.40312524	0.0072504402	0.59902533	0.44832908	0.03115379	0.31018948	0.80522443	-0.16955179	0.4395209	0.82394782	0.19890796	0.40243381	0.90080776	-0.13550914	0.48376346	0.91531607	0.10520249	0.2396986	0.91897685	0.063771606	0.36507737	1.3658976	-0.15027224	0.34473337	1.3668245	0.17999645	0.26718727	1.3974591	0.0034617893	0.34758936	1.0238203	-0.19509081	0.17969671	1.0672166	0.19699765	0.60396917	0.91872998	-0.2181134	0.19740583	0.83659569	0.27244682
293	1.168	0.067152198	0.042998185	-0.054036301	0.8366672	0.074276226	0.10390694	-0.040699423	0.12278588	-0.069540253	0.69621812	0.054410041	0.1351869	-0.013843031	0.13739394	0.012249443	0.7114404	0.086502061	0.052752807	-0.10771115	0.12572967	-0.022368025	0.65663622	0.018924454	0.087308854	0.18643693	0.43541001	-0.11399637	0.57702729	0.45148599	0.17049276	0.20435468	0.40305049	0.0073718321	0.60587252	0.44828702	0.031265181	0.3178052	0.80450024	-0.16866243	0.44718758	0.82452026	0.20002042	0.41048707	0.89996727	-0.13474483	0.49101321	0.91581402	0.10597138	0.24786376	0.91921479	0.063484944	0.37117829	1.3658408	-0.1496451	0.35148491	1.3668613	0.18068689	0.27351972	1.3971047	0.0043097025	0.35441182	1.0232582	-0.19461836	0.18619346	1.0677158	0.19731375	0.61046011	0.91943152	-0.21724957	0.20229023	0.837074	0.27272387
294	1.172	0.067920273	0.04311568	-0.053942281	0.84061726	0.070717448	0.10342593	-0.037875776	0.12561605	-0.069817575	0.69945561	0.054485701	0.13517024	-0.01091842	0.13957833	0.011635887	0.71512145	0.086023195	0.052478443	-0.10471918	0.12987748	-0.022738668	0.65805004	0.020275797	0.087441071	0.193086	0.43560126	-0.11384074	0.58399622	0.45072723	0.17013424	0.21070199	0.40311076	0.0075122344	0.6124122	0.44838969	0.031221887	0.32559177	0.80361393	-0.1677959	0.454953	0.82526682	0.20121033	0.41866525	0.89916233	-0.13388988	0.49828806	0.91628611	0.1067394	0.25594365	0.91944899	0.063237446	0.37731776	1.3658789	-0.14903796	0.35823654	1.3669579	0.18139984	0.27983492	1.3968267	0.0051786571	0.35987829	1.0230211	-0.19331889	0.19275607	1.0682074	0.19763534	0.61684435	0.9200846	-0.21640686	0.20746755	0.83760996	0.27310868
295	1.176	0.068786991	0.043226996	-0.053812392	0.84379423	0.067775683	0.10247808	-0.034859267	0.12852516	-0.0701314	0.70252012	0.054318466	0.13542184	-0.0079352528	0.14166072	0.010910516	0.71813225	0.085507133	0.052440582	-0.10136732	0.13414242	-0.023054139	0.65933948	0.021410351	0.087926946	0.19993105	0.43581069	-0.11367242	0.5911871	0.45021233	0.16965335	0.21720387	0.40321091	0.0076514521	0.61867425	0.44867876	0.031107154	0.33354144	0.8025623	-0.16697196	0.46279672	0.82622284	0.20242114	0.42692489	0.89839036	-0.13295329	0.50557414	0.91676636	0.10756798	0.26394557	0.91968112	0.063020877	0.38350078	1.3660169	-0.14845597	0.36497566	1.3671165	0.18212166	0.28617468	1.3966396	0.0060617595	0.36419492	1.0230597	-0.19132575	0.19935471	1.0686918	0.19798692	0.62311942	0.92069687	-0.21557996	0.21293902	0.83819013	0.27357626
296	1.18	0.069710605	0.043329169	-0.053672972	0.84605616	0.064989584	0.10112967	-0.031648044	0.13150701	-0.070462935	0.70521396	0.053984915	0.13587961	-0.0046931457	0.14373853	0.010174146	0.72039236	0.084992855	0.052592502	-0.097608967	0.13852651	-0.023249307	0.66042195	0.022368693	0.088663288	0.20696814	0.43603393	-0.11347828	0.59814941	0.45033591	0.16936945	0.22387745	0.40322906	0.0077758851	0.62456402	0.4491447	0.031134189	0.34164534	0.80146583	-0.16620548	0.47068808	0.82738831	0.20359712	0.43522606	0.89764549	-0.1319437	0.51290402	0.91729747	0.10848161	0.27191706	0.91991278	0.062815105	0.38973301	1.3662495	-0.14789184	0.37170092	1.3673388	0.18284151	0.29258936	1.3965543	0.0069460976	0.36868813	1.0231081	-0.18945958	0.20599253	1.0691538	0.19838917	0.62928392	0.92127828	-0.21475865	0.21861675	0.83878678	0.27407
297	1.184	0.070622347	0.043415427	-0.053575467	0.84760449	0.062003138	0.099571468	-0.028222664	0.13453838	-0.070785543	0.70750132	0.053606787	0.13646189	-0.00095253546	0.14591308	0.0095143237	0.72203831	0.084514281	0.052869056	-0.093470944	0.14300392	-0.023294458	0.66129351	0.023232015	0.08951733	0.21422937	0.43625083	-0.11327106	0.60473692	0.45118634	0.16940169	0.23074586	0.40312292	0.0078879751	0.62988919	0.44974542	0.031571708	0.34989393	0.80048535	-0.16549494	0.47861333	0.82875722	0.20471278	0.44354118	0.89692851	-0.13086638	0.52030334	0.9179124	0.1094633	0.27989001	0.92014465	0.0626088	0.39601447	1.3665635	-0.14733306	0.37841354	1.3676249	0.18355673	0.29910728	1.3965697	0.0078122526	0.37422483	1.0230186	-0.18827162	0.21268998	1.0695804	0.19885451	0.63533142	0.92183533	-0.21394148	0.22444963	0.83939591	0.27457814
